HIERARCHY
ROOT hip
{
  OFFSET 0 0 0
  CHANNELS 6 Xposition Yposition Zposition Zrotation Yrotation Xrotation
  JOINT abdomen
  {
    OFFSET 0 20.6881 -0.73152
    CHANNELS 3 Zrotation Xrotation Yrotation
    JOINT chest
    {
      OFFSET 0 11.7043 -0.48768
      CHANNELS 3 Zrotation Xrotation Yrotation
      JOINT neck
      {
        OFFSET 0 22.1894 -2.19456
        CHANNELS 3 Zrotation Xrotation Yrotation
        JOINT head
        {
          OFFSET -0.24384 7.07133 1.2192
          CHANNELS 3 Zrotation Xrotation Yrotation
          JOINT leftEye
          {
            OFFSET 4.14528 8.04674 8.04672
            CHANNELS 3 Zrotation Xrotation Yrotation
            End Site
            {
              OFFSET 1 0 0
            }
          }
          JOINT rightEye
          {
            OFFSET -3.6576 8.04674 8.04672
            CHANNELS 3 Zrotation Xrotation Yrotation
            End Site
            {
              OFFSET 1 0 0
            }
          }
        }
      }
      JOINT rCollar
      {
        OFFSET -2.68224 19.2634 -4.8768
        CHANNELS 3 Zrotation Xrotation Yrotation
        JOINT rShldr
        {
          OFFSET -8.77824 -1.95073 1.46304
          CHANNELS 3 Zrotation Xrotation Yrotation
          JOINT rForeArm
          {
            OFFSET -28.1742 -1.7115 0.48768
            CHANNELS 3 Zrotation Xrotation Yrotation
            JOINT rHand
            {
              OFFSET -22.5879 0.773209 7.07136
              CHANNELS 3 Zrotation Xrotation Yrotation
              JOINT rThumb1
              {
                OFFSET -1.2192 -0.487915 3.41376
                CHANNELS 3 Zrotation Xrotation Yrotation
                JOINT rThumb2
                {
                  OFFSET -3.37035 -0.52449 3.41376
                  CHANNELS 3 Zrotation Xrotation Yrotation
                  End Site
                  {
                    OFFSET -1.78271 -1.18214 1.43049
                  }
                }
              }
              JOINT rIndex1
              {
                OFFSET -7.75947 0.938293 5.60832
                CHANNELS 3 Zrotation Xrotation Yrotation
                JOINT rIndex2
                {
                  OFFSET -2.54057 -0.884171 1.56538
                  CHANNELS 3 Zrotation Xrotation Yrotation
                  End Site
                  {
                    OFFSET -1.62519 -0.234802 1.16502
                  }
                }
              }
              JOINT rMid1
              {
                OFFSET -8.24714 1.18213 3.41376
                CHANNELS 3 Zrotation Xrotation Yrotation
                JOINT rMid2
                {
                  OFFSET -3.10165 -0.590103 1.0647
                  CHANNELS 3 Zrotation Xrotation Yrotation
                  End Site
                  {
                    OFFSET -2.48547 -0.328903 0.83742
                  }
                }
              }
              JOINT rRing1
              {
                OFFSET -8.82822 0.546677 1.51678
                CHANNELS 3 Zrotation Xrotation Yrotation
                JOINT rRing2
                {
                  OFFSET -2.60934 -0.819778 -0.0198488
                  CHANNELS 3 Zrotation Xrotation Yrotation
                  End Site
                  {
                    OFFSET -2.33842 -0.294052 0.168128
                  }
                }
              }
              JOINT rPinky1
              {
                OFFSET -8.27202 -0.0477905 -0.4584
                CHANNELS 3 Zrotation Xrotation Yrotation
                JOINT rPinky2
                {
                  OFFSET -1.82734 -0.647385 -0.700984
                  CHANNELS 3 Zrotation Xrotation Yrotation
                  End Site
                  {
                    OFFSET -1.69225 -0.51767 -0.607171
                  }
                }
              }
            }
          }
        }
      }
      JOINT lCollar
      {
        OFFSET 2.68224 19.2634 -4.8768
        CHANNELS 3 Zrotation Xrotation Yrotation
        JOINT lShldr
        {
          OFFSET 8.77824 -1.95073 1.46304
          CHANNELS 3 Zrotation Xrotation Yrotation
          JOINT lForeArm
          {
            OFFSET 28.1742 -1.7115 0.48768
            CHANNELS 3 Zrotation Xrotation Yrotation
            JOINT lHand
            {
              OFFSET 22.5879 0.773209 7.07136
              CHANNELS 3 Zrotation Xrotation Yrotation
              JOINT lThumb1
              {
                OFFSET 1.2192 -0.487915 3.41376
                CHANNELS 3 Zrotation Xrotation Yrotation
                JOINT lThumb2
                {
                  OFFSET 3.37035 -0.52449 3.41376
                  CHANNELS 3 Zrotation Xrotation Yrotation
                  End Site
                  {
                    OFFSET 1.78271 -1.18214 1.43049
                  }
                }
              }
              JOINT lIndex1
              {
                OFFSET 7.75947 0.938293 5.60832
                CHANNELS 3 Zrotation Xrotation Yrotation
                JOINT lIndex2
                {
                  OFFSET 2.54057 -0.884171 1.56538
                  CHANNELS 3 Zrotation Xrotation Yrotation
                  End Site
                  {
                    OFFSET 1.62519 -0.234802 1.16502
                  }
                }
              }
              JOINT lMid1
              {
                OFFSET 8.24714 1.18213 3.41376
                CHANNELS 3 Zrotation Xrotation Yrotation
                JOINT lMid2
                {
                  OFFSET 3.10165 -0.590103 1.0647
                  CHANNELS 3 Zrotation Xrotation Yrotation
                  End Site
                  {
                    OFFSET 2.48547 -0.328903 0.83742
                  }
                }
              }
              JOINT lRing1
              {
                OFFSET 8.82822 0.546677 1.51678
                CHANNELS 3 Zrotation Xrotation Yrotation
                JOINT lRing2
                {
                  OFFSET 2.60934 -0.819778 -0.0198488
                  CHANNELS 3 Zrotation Xrotation Yrotation
                  End Site
                  {
                    OFFSET 2.33842 -0.294052 0.168128
                  }
                }
              }
              JOINT lPinky1
              {
                OFFSET 8.27202 -0.0477905 -0.4584
                CHANNELS 3 Zrotation Xrotation Yrotation
                JOINT lPinky2
                {
                  OFFSET 1.82734 -0.647385 -0.700984
                  CHANNELS 3 Zrotation Xrotation Yrotation
                  End Site
                  {
                    OFFSET 1.69225 -0.51767 -0.607171
                  }
                }
              }
            }
          }
        }
      }
    }
  }
  JOINT rButtock
  {
    OFFSET -8.77824 4.35084 1.2192
    CHANNELS 3 Zrotation Xrotation Yrotation
    JOINT rThigh
    {
      OFFSET 0 -1.70687 -2.19456
      CHANNELS 3 Zrotation Xrotation Yrotation
      JOINT rShin
      {
        OFFSET 0 -36.8199 0.73152
        CHANNELS 3 Zrotation Xrotation Yrotation
        JOINT rFoot
        {
          OFFSET 0.73152 -45.1104 -5.12064
          CHANNELS 3 Zrotation Xrotation Yrotation
          End Site
          {
            OFFSET -1.1221 -3.69964 12.103
          }
        }
      }
    }
  }
  JOINT lButtock
  {
    OFFSET 8.77824 4.35084 1.2192
    CHANNELS 3 Zrotation Xrotation Yrotation
    JOINT lThigh
    {
      OFFSET 0 -1.70687 -2.19456
      CHANNELS 3 Zrotation Xrotation Yrotation
      JOINT lShin
      {
        OFFSET 0 -36.8199 0.73152
        CHANNELS 3 Zrotation Xrotation Yrotation
        JOINT lFoot
        {
          OFFSET -0.73152 -45.1104 -5.12064
          CHANNELS 3 Zrotation Xrotation Yrotation
          End Site
          {
            OFFSET 1.1221 -3.69964 12.103
          }
        }
      }
    }
  }
}
MOTION
Frames:	7
Frame Time:	0.00833333
1.41621 82.4855 48.8829 0.0 0.0 0.0 -4.35895 0.00629238 -0.117456 -1.20159 0.0324761 -0.207681 -2.29801e-14 -7.95139e-16 2.98177e-16 -6.90777e-14 3.18055e-15 5.94801e-16 -0.0 0.0 0.0 -0.0 0.0 0.0 -1.08356e-14 -2.79541e-17 1.98785e-16 -2.41015e-13 -7.45443e-16 2.78299e-15 -4.16121e-12 1.23485e-12 8.5875e-14 -4.78189e-11 -1.35487e-12 3.97569e-13 -1.12763e-10 -2.60555e-13 1.07503e-12 -1.94742e-10 -4.54819e-13 1.85108e-12 -1.12757e-10 -2.59215e-13 1.06867e-12 7.73091 5.47488 0.417314 -1.12763e-10 -2.60507e-13 1.07185e-12 2.90554 0.965183 0.102902 -1.12756e-10 -2.60408e-13 1.07026e-12 10.2786 0.731801 0.0259123 -1.12769e-10 -2.58022e-13 1.07503e-12 2.22167 -0.733487 -0.20892 -1.08327e-14 -2.09656e-17 -9.93923e-17 -2.46146e-13 -3.54085e-16 3.97569e-16 -4.19838e-12 -1.26089e-12 9.22361e-14 -4.78183e-11 1.15732e-12 3.81667e-13 -1.1283e-10 -2.27361e-13 1.02414e-12 -1.9485e-10 -3.94389e-13 1.79304e-12 -1.12837e-10 -2.24627e-13 1.03368e-12 -7.73091 5.47488 -0.417314 -1.12832e-10 -2.27211e-13 1.02732e-12 -2.90554 0.965183 -0.102902 -1.1284e-10 -2.27111e-13 1.03368e-12 -10.2786 0.731801 -0.0259123 -1.12826e-10 -2.26615e-13 1.02732e-12 -2.22167 -0.733487 0.20892 -2.03217e-16 0.0 -3.88251e-19 -2.8881 -1.94435 0.0304147 -0.00797304 -2.07874 -0.0650964 -0.422347 4.00217 0.127129 2.03217e-16 0.0 3.88251e-19 -3.72542 -11.2507 0.483803 -0.014313 14.7725 -0.388795 0.544878 -3.54243 0.012506
-0.532671 82.1458 46.9953 -8.416 3.0305 8.0695 -2.60812 -2.24076 -0.54825 -1.13485 -3.25562 -0.37882 -3.58067 4.7607 -4.21212 6.34404 -4.51057 -7.76397 -0.0 0.0 0.0 -0.0 0.0 0.0 8.81236e-14 8.35179e-14 -1.20956e-14 22.3126 -4.22659 -3.76817 -3.13081 -1.25844 5.05385 0.45474 15.0605 1.86217 4.89642e-10 2.22094e-10 -1.23996e-09 7.86631e-10 4.3069e-10 -2.15592e-09 4.89651e-10 2.22094e-10 -1.23996e-09 7.73091 5.47488 0.417314 4.89643e-10 2.22094e-10 -1.23996e-09 2.90554 0.965183 0.102902 4.89648e-10 2.22096e-10 -1.23996e-09 10.2786 0.731801 0.0259123 4.89635e-10 2.22097e-10 -1.23995e-09 2.22167 -0.733487 -0.20892 8.80892e-14 8.35248e-14 -1.23949e-14 -24.1044 0.244338 2.88786 3.11394 -1.24897 -5.02904 -0.130873 8.04238 -1.09053 -1.27881e-09 -8.79088e-10 -3.15518e-10 -2.2153e-09 -1.51382e-09 -5.16059e-10 -1.27883e-09 -8.79088e-10 -3.1551e-10 -7.73091 5.47488 -0.417314 -1.27882e-09 -8.7909e-10 -3.15519e-10 -2.90554 0.965183 -0.102902 -1.27883e-09 -8.79091e-10 -3.15513e-10 -10.2786 0.731801 -0.0259123 -1.27881e-09 -8.79086e-10 -3.15516e-10 -2.22167 -0.733487 0.20892 -2.03217e-16 0.0 -3.88251e-19 -2.11673 -3.28484 6.46476 0.00326342 -1.51507 0.0372869 -0.978328 1.64102 -6.43169 2.03217e-16 0.0 3.88251e-19 -2.47953 -11.3081 -11.1412 -0.0112978 14.0575 -0.290212 1.18536 -7.72178 13.3886
-0.444177 82.1437 46.989 -8.3925 3.013 8.098 -0.776108 -4.59911 -1.01891 -1.07859 -6.72716 -0.565583 -6.60797 9.70764 -8.76202 11.7298 -9.01363 -16.1243 -0.0 0.0 0.0 -0.0 0.0 0.0 2.01687e-13 1.76904e-13 -2.76e-14 45.2774 -8.67541 -7.81348 -6.19805 -2.5549 10.4009 -0.28944 30.96 4.31811 1.16906e-09 4.76645e-10 -2.64907e-09 1.89316e-09 9.23806e-10 -4.60584e-09 1.16907e-09 4.76643e-10 -2.64907e-09 7.73091 5.47488 0.417314 1.16906e-09 4.76646e-10 -2.64907e-09 2.90554 0.965183 0.102902 1.16906e-09 4.76648e-10 -2.64907e-09 10.2786 0.731801 0.0259123 1.16905e-09 4.76648e-10 -2.64906e-09 2.22167 -0.733487 -0.20892 2.01611e-13 1.76911e-13 -2.79013e-14 -49.6413 0.480026 5.92015 6.17541 -2.54131 -10.3645 0.0764857 16.5091 -2.31368 -2.6036e-09 -1.87707e-09 -6.83083e-10 -4.51114e-09 -3.23252e-09 -1.11806e-09 -2.60362e-09 -1.87707e-09 -6.83077e-10 -7.73091 5.47488 -0.417314 -2.60361e-09 -1.87707e-09 -6.83087e-10 -2.90554 0.965183 -0.102902 -2.60362e-09 -1.87708e-09 -6.83083e-10 -10.2786 0.731801 -0.0259123 -2.60361e-09 -1.87707e-09 -6.83083e-10 -2.22167 -0.733487 0.20892 -2.03217e-16 0.0 -3.88251e-19 -0.954981 -4.60105 13.2851 0.012924 -0.91683 0.145442 -2.15065 -0.811819 -13.3632 2.03217e-16 0.0 3.88251e-19 -1.15856 -10.843 -23.4016 -0.00543562 13.2992 -0.187122 3.92439 -11.1437 27.8232
-0.377753 82.1446 46.9812 -8.4182 2.9385 8.1388 0.791539 -6.73313 -1.41836 -1.06125 -9.83124 -0.729985 -8.60709 13.969 -12.9831 15.4034 -12.5314 -23.8205 -0.0 0.0 0.0 -0.0 0.0 0.0 2.86042e-13 2.5061e-13 -3.66843e-14 65.2481 -12.458 -11.5493 -8.73392 -3.65799 15.1896 -2.59274 44.9494 7.63362 1.69445e-09 6.66804e-10 -3.72202e-09 2.74938e-09 1.29298e-09 -6.47145e-09 1.69447e-09 6.668e-10 -3.72202e-09 7.73091 5.47488 0.417314 1.69446e-09 6.66804e-10 -3.72202e-09 2.90554 0.965183 0.102902 1.69446e-09 6.66808e-10 -3.72202e-09 10.2786 0.731801 0.0259123 1.69444e-09 6.66807e-10 -3.72201e-09 2.22167 -0.733487 -0.20892 2.85933e-13 2.50616e-13 -3.6986e-14 -72.3867 0.72557 8.6642 8.69139 -3.63163 -15.1146 0.599724 24.0904 -3.54886 -3.61078e-09 -2.63681e-09 -9.48603e-10 -6.25619e-09 -4.54067e-09 -1.55176e-09 -3.61081e-09 -2.63682e-09 -9.48599e-10 -7.73091 5.47488 -0.417314 -3.6108e-09 -2.63681e-09 -9.4861e-10 -2.90554 0.965183 -0.102902 -3.61081e-09 -2.63682e-09 -9.48607e-10 -10.2786 0.731801 -0.0259123 -3.61079e-09 -2.6368e-09 -9.48604e-10 -2.22167 -0.733487 0.20892 -2.03217e-16 0.0 -3.88251e-19 0.311367 -5.68874 19.4008 0.0196934 -0.387712 0.241934 -3.68398 -2.87431 -19.5664 2.03217e-16 0.0 3.88251e-19 0.0742375 -10.0056 -34.3082 0.00229324 12.6274 -0.0949733 7.84984 -12.7749 40.9913
-0.333501 82.1467 46.9698 -8.5038 2.7629 8.2065 1.77428 -8.30809 -1.63156 -1.09691 -12.0172 -0.830279 -9.55612 16.8148 -16.0511 17.3583 -14.5456 -29.3448 -0.0 0.0 0.0 -0.0 0.0 0.0 2.97378e-13 2.75114e-13 -2.97183e-14 78.9583 -14.7896 -14.2676 -10.401 -4.38873 18.5558 -5.82128 54.3683 11.3076 1.83479e-09 6.95982e-10 -3.95456e-09 2.97984e-09 1.3523e-09 -6.87629e-09 1.8348e-09 6.95977e-10 -3.95456e-09 7.73091 5.47488 0.417314 1.83479e-09 6.95982e-10 -3.95456e-09 2.90554 0.965183 0.102902 1.83479e-09 6.95985e-10 -3.95456e-09 10.2786 0.731801 0.0259123 1.83478e-09 6.95984e-10 -3.95455e-09 2.22167 -0.733487 -0.20892 2.97256e-13 2.75121e-13 -3.00165e-14 -88.1121 1.0011 10.6873 10.305 -4.32877 -18.3746 1.20059 29.4922 -4.55919 -3.82395e-09 -2.80094e-09 -9.5901e-10 -6.62425e-09 -4.82247e-09 -1.56472e-09 -3.82397e-09 -2.80095e-09 -9.59007e-10 -7.73091 5.47488 -0.417314 -3.82397e-09 -2.80095e-09 -9.5902e-10 -2.90554 0.965183 -0.102902 -3.82397e-09 -2.80095e-09 -9.59018e-10 -10.2786 0.731801 -0.0259123 -3.82396e-09 -2.80094e-09 -9.59014e-10 -2.22167 -0.733487 0.20892 -2.03217e-16 0.0 -3.88251e-19 1.24349 -6.44399 23.7017 0.0235363 -0.0313903 0.309325 -5.003 -4.19842 -23.9029 2.03217e-16 0.0 3.88251e-19 0.917046 -9.22942 -41.9305 0.00938565 12.1724 -0.0288695 11.2188 -12.9027 50.3131
-0.256626 82.1298 46.9237 -8.3349 2.5561 8.4486 1.9391 -9.12933 -1.55757 -1.20236 -12.9254 -0.830429 -9.70018 17.8985 -17.2885 17.9587 -15.1074 -31.5656 -0.0 0.0 0.0 -0.0 0.0 0.0 1.82305e-13 2.26488e-13 8.04379e-15 84.4548 -15.315 -15.4379 -11.0401 -4.66936 19.8971 -7.55985 57.6645 13.1457 1.41429e-09 4.02515e-10 -2.78616e-09 2.30652e-09 8.02662e-10 -4.8492e-09 1.4143e-09 4.02509e-10 -2.78616e-09 7.73091 5.47488 0.417314 1.41429e-09 4.02514e-10 -2.78616e-09 2.90554 0.965183 0.102902 1.41429e-09 4.02517e-10 -2.78616e-09 10.2786 0.731801 0.0259123 1.41428e-09 4.02517e-10 -2.78615e-09 2.22167 -0.733487 -0.20892 1.82204e-13 2.26496e-13 7.75454e-15 -93.9744 1.39812 11.714 10.8507 -4.55132 -19.53 1.52367 31.8436 -5.0425 -2.75999e-09 -1.95769e-09 -4.29745e-10 -4.77398e-09 -3.36575e-09 -6.77764e-10 -2.76002e-09 -1.9577e-09 -4.29742e-10 -7.73091 5.47488 -0.417314 -2.76001e-09 -1.95769e-09 -4.29755e-10 -2.90554 0.965183 -0.102902 -2.76002e-09 -1.9577e-09 -4.29754e-10 -10.2786 0.731801 -0.0259123 -2.76e-09 -1.95768e-09 -4.29751e-10 -2.22167 -0.733487 0.20892 -2.03217e-16 0.0 -3.88251e-19 1.434 -6.90663 25.4302 0.0253049 0.0801192 0.335951 -5.55 -4.68117 -25.5874 2.03217e-16 0.0 3.88251e-19 1.01547 -8.97571 -45.0572 0.0131283 12.0199 0.000883182 12.7748 -12.7327 54.2076
-0.160245 82.0972 46.8497 -7.9383 2.343 8.8246 1.5295 -9.41095 -1.27766 -1.35294 -12.9206 -0.757889 -9.43592 17.7866 -17.1542 17.8132 -14.8199 -31.3648 -0.0 0.0 0.0 -0.0 0.0 0.0 -2.19077e-14 1.25828e-13 6.74066e-14 84.2038 -14.5894 -15.4624 -10.9905 -4.65133 19.7882 -7.08679 56.6969 12.6178 5.9422e-10 -1.1678e-10 -6.27785e-10 9.88971e-10 -1.73595e-10 -1.10343e-09 5.94236e-10 -1.16786e-10 -6.27788e-10 7.73091 5.47488 0.417314 5.9423e-10 -1.16783e-10 -6.2778e-10 2.90554 0.965183 0.102902 5.94226e-10 -1.16782e-10 -6.27785e-10 10.2786 0.731801 0.0259123 5.94213e-10 -1.1678e-10 -6.27773e-10 2.22167 -0.733487 -0.20892 -2.19662e-14 1.25837e-13 6.71302e-14 -92.7868 1.87982 12.0288 10.6744 -4.45517 -19.178 1.53418 32.0269 -5.07559 -7.91693e-10 -4.03138e-10 4.7631e-10 -1.35303e-09 -6.81596e-10 8.37192e-10 -7.91708e-10 -4.03142e-10 4.76312e-10 -7.73091 5.47488 -0.417314 -7.91701e-10 -4.03141e-10 4.76301e-10 -2.90554 0.965183 -0.102902 -7.91707e-10 -4.03144e-10 4.76301e-10 -10.2786 0.731801 -0.0259123 -7.91697e-10 -4.03134e-10 4.76299e-10 -2.22167 -0.733487 0.20892 -2.03217e-16 0.0 -3.88251e-19 1.03203 -7.20671 25.3141 0.0260057 0.0169029 0.333456 -5.44193 -4.61989 -25.3643 2.03217e-16 0.0 3.88251e-19 0.538366 -9.19967 -44.9934 0.0139342 12.0836 0.00480892 12.9022 -12.8588 54.2784
